<?xml version="1.0" standalone="no"?>
<!DOCTYPE svg PUBLIC "-//W3C//DTD SVG 20010904//EN"
 "http://www.w3.org/TR/2001/REC-SVG-20010904/DTD/svg10.dtd">
<svg version="1.0" xmlns="http://www.w3.org/2000/svg"
 width="233.000000pt" height="263.000000pt" viewBox="0 0 233.000000 263.000000"
 preserveAspectRatio="xMidYMid meet">

<g transform="translate(0.000000,263.000000) scale(0.100000,-0.100000)"
fill="#25295f" stroke="none">
<path d="M1644 2605 c-69 -35 -139 -99 -241 -223 -117 -140 -165 -205 -252
-335 -40 -59 -75 -105 -79 -103 -4 2 -20 31 -36 64 l-29 60 -50 -15 c-71 -21
-245 -96 -308 -134 -55 -32 -155 -102 -198 -139 l-24 -20 57 -125 c31 -69 56
-127 56 -129 0 -2 -18 -34 -39 -71 l-39 -67 -16 30 c-9 17 -30 51 -46 76 -17
24 -37 63 -45 86 -14 40 -14 41 6 35 20 -7 20 -4 14 52 -12 114 -7 110 -81 51
-50 -40 -61 -54 -48 -58 10 -4 18 -20 20 -44 4 -42 41 -128 85 -197 52 -82 31
-167 -52 -210 -68 -34 -139 -13 -179 54 -35 57 -20 145 31 181 18 12 20 21 15
50 -4 19 -11 38 -17 42 -16 9 -81 -47 -106 -92 -29 -50 -31 -150 -4 -209 30
-67 113 -125 179 -125 20 0 15 -8 -38 -61 -56 -55 -95 -118 -105 -167 -17 -82
30 -190 100 -228 19 -10 34 -23 32 -28 -2 -5 -49 -38 -105 -74 -108 -67 -107
-66 -70 -116 13 -17 21 -14 141 63 l127 81 92 0 92 0 -45 -37 c-24 -21 -64
-56 -88 -78 l-43 -41 25 -30 c21 -23 28 -27 38 -16 20 19 26 15 33 -22 10 -51
58 -110 111 -136 38 -18 57 -22 101 -17 66 7 128 40 155 84 l21 33 46 -41 c62
-55 151 -96 240 -109 141 -22 366 30 529 121 100 56 245 199 290 285 82 154
84 309 7 471 -64 134 -193 237 -368 293 -59 19 -84 22 -185 18 -146 -6 -204
-27 -289 -103 -134 -122 -141 -253 -22 -411 63 -83 144 -111 244 -83 46 13 96
59 96 88 0 21 -3 21 -80 15 -69 -6 -83 -4 -100 11 -27 24 -25 47 6 85 37 43
80 63 140 63 67 0 115 -29 151 -91 49 -83 33 -163 -48 -242 -130 -126 -366
-146 -554 -47 -72 38 -178 142 -223 219 -110 186 -71 418 98 585 190 187 531
270 815 198 183 -46 328 -134 463 -281 l72 -77 21 48 c43 97 21 209 -61 306
l-39 46 75 74 74 73 -43 44 c-116 120 -272 209 -429 246 -25 6 -30 2 -51 -41
-13 -27 -35 -78 -48 -115 -23 -65 -24 -67 -54 -61 -16 3 -34 10 -40 15 -17 16
-11 314 8 388 42 161 134 280 217 280 57 0 104 -65 130 -180 18 -83 20 -90 32
-90 17 0 3 137 -21 201 -45 119 -138 159 -247 104z m-193 -406 c25 -47 -30
-219 -69 -219 -47 0 -25 158 30 228 15 17 26 15 39 -9z m-478 -220 c35 -16 73
-99 58 -128 -10 -18 -68 -51 -90 -51 -4 0 -20 27 -36 60 -24 51 -27 63 -17 85
10 21 28 35 59 44 1 1 13 -4 26 -10z m855 -1 c7 -7 12 -22 12 -33 0 -28 -29
-113 -41 -121 -10 -5 -96 23 -113 37 -9 8 103 129 120 129 5 0 15 -5 22 -12z
m-1037 -88 c23 -13 72 -107 65 -125 -4 -11 -96 -69 -101 -63 -2 2 -14 26 -29
55 -37 74 -35 106 9 131 25 14 32 14 56 2z m1225 -45 c8 -20 -1 -53 -26 -93
l-20 -33 -43 25 c-23 14 -43 29 -45 34 -1 5 15 25 38 46 42 38 86 48 96 21z
m-1402 -57 c14 -13 36 -49 50 -80 l25 -57 -50 -42 c-27 -23 -51 -40 -52 -38
-24 42 -77 164 -77 178 0 24 38 56 72 60 4 1 18 -9 32 -21z m804 -488 c-7 -20
-113 -150 -123 -150 -11 0 -128 97 -133 111 -3 8 46 24 122 39 59 11 138 12
134 0z m140 -29 c43 -15 96 -40 117 -54 58 -37 101 -74 94 -81 -6 -6 -173 -26
-220 -26 -24 0 -28 7 -52 88 -28 92 -30 102 -22 102 2 0 40 -13 83 -29z m-105
-84 l16 -48 -37 6 c-65 11 -65 12 -31 55 18 22 33 39 34 37 1 -1 9 -24 18 -50z
m-346 -48 c-5 -70 -12 -98 -29 -121 -13 -19 -23 -51 -26 -84 -5 -62 -15 -61
-44 5 -26 59 -27 135 -4 181 20 38 85 110 100 110 5 0 6 -36 3 -91z m133 -5
c0 -6 -93 -44 -98 -40 -2 3 -1 30 3 61 l6 55 45 -36 c24 -20 44 -38 44 -40z
m-810 -53 l0 -79 -37 19 c-21 10 -49 19 -62 19 -23 0 -20 5 34 60 33 33 61 60
62 60 2 0 3 -36 3 -79z m1425 -64 c42 -85 61 -180 51 -257 -11 -91 -13 -91
-114 -14 -87 67 -90 70 -95 117 -6 45 -3 53 49 138 31 49 60 89 64 89 5 0 25
-33 45 -73z m-156 3 c-17 -27 -32 -50 -33 -50 -2 0 -17 20 -34 44 -36 50 -33
54 45 55 l53 1 -31 -50z m-1342 -77 c98 -46 97 -207 -2 -249 -97 -40 -195 22
-195 126 0 105 101 169 197 123z m1402 -242 l44 -36 -74 -17 c-40 -9 -74 -16
-76 -15 -1 2 7 28 19 60 23 62 20 62 87 8z m-1209 -14 c46 -68 46 -69 18 -63
-12 3 -48 8 -79 11 l-56 6 28 30 c15 17 31 39 34 50 9 28 16 24 55 -34z m1310
-78 c0 -6 -16 -35 -36 -64 -49 -75 -194 -207 -194 -178 0 4 -7 48 -16 97 -8
48 -13 91 -10 93 4 5 226 60 249 62 4 1 7 -4 7 -10z m-1206 -103 c51 -21 76
-60 76 -117 0 -161 -238 -173 -251 -14 -4 44 2 65 28 95 42 50 87 61 147 36z
m895 -57 c5 -30 8 -56 6 -57 -5 -5 -105 51 -105 58 1 6 84 58 88 55 1 -1 7
-27 11 -56z m-566 -38 l77 -17 54 -89 54 -90 -54 -3 c-108 -6 -227 75 -288
196 -14 28 -26 53 -26 56 0 2 24 -5 53 -16 28 -11 87 -28 130 -37z m469 -43
c48 -29 88 -55 88 -59 0 -18 -243 -99 -257 -86 -8 8 48 181 61 189 16 11 12
13 108 -44z m-207 0 c-4 -18 -13 -46 -19 -62 l-12 -30 -32 55 -31 54 37 6 c66
11 64 12 57 -23z"/>
<path d="M397 2573 c-4 -3 -4 -17 -1 -30 4 -13 1 -43 -6 -67 -9 -34 -9 -49 0
-67 11 -19 10 -24 -4 -35 -15 -11 -16 -16 -4 -37 l13 -24 102 49 c100 48 102
50 91 74 -8 16 -17 23 -28 19 -12 -4 -21 3 -30 24 -8 20 -21 32 -40 36 -15 3
-41 19 -57 35 -17 16 -33 27 -36 23z m127 -110 c8 -20 -15 -37 -26 -20 -12 19
-9 37 6 37 8 0 17 -8 20 -17z m-44 -22 c7 -13 7 -22 0 -26 -15 -9 -30 4 -30
26 0 25 16 25 30 0z m-46 -18 c10 -25 -10 -39 -23 -15 -10 19 -6 32 10 32 4 0
10 -8 13 -17z"/>
<path d="M577 2389 c-17 -10 -13 -14 32 -35 65 -30 119 -73 162 -130 36 -48
45 -50 112 -25 l28 11 -32 45 c-37 51 -74 82 -138 114 -51 26 -138 37 -164 20z"/>
<path d="M505 2346 c-16 -11 -17 -22 -12 -87 6 -68 38 -184 55 -200 4 -4 53
16 110 45 l102 52 -29 46 c-29 46 -106 110 -168 142 -39 19 -35 19 -58 2z"/>
<path d="M423 2308 c-61 -29 -92 -197 -59 -312 9 -31 19 -56 22 -56 4 0 29 16
56 36 40 30 48 41 44 58 -31 107 -38 147 -34 213 2 40 1 73 -2 72 -3 0 -15 -5
-27 -11z"/>
<path d="M1746 2285 c-19 -29 -25 -25 78 -50 151 -35 295 -116 394 -219 62
-64 64 -65 88 -50 13 9 24 20 24 25 0 17 -116 126 -179 168 -80 55 -167 94
-277 126 -106 31 -108 31 -128 0z"/>
<path d="M1675 2195 c-3 -8 -7 -22 -10 -30 -3 -10 5 -17 23 -21 198 -43 398
-156 495 -280 23 -29 47 -53 53 -53 6 -1 20 10 32 22 l22 24 -26 39 c-96 144
-275 259 -467 298 -95 20 -116 20 -122 1z"/>
<path d="M824 2141 c-165 -67 -298 -142 -422 -240 l-52 -41 17 -34 16 -34 82
63 c147 112 317 200 465 240 36 10 67 19 68 21 10 7 -24 74 -38 74 -8 0 -69
-22 -136 -49z"/>
<path d="M1455 1416 c-13 -19 -14 -29 -5 -45 13 -25 23 -26 39 -7 15 18 11 68
-6 73 -6 2 -19 -7 -28 -21z"/>
<path d="M1065 1379 c-4 -5 -4 -21 -1 -35 9 -32 46 -34 46 -1 0 35 -31 60 -45
36z"/>
<path d="M1847 1212 c-27 -29 -22 -52 12 -52 33 0 54 21 49 47 -5 25 -41 28
-61 5z"/>
<path d="M1957 633 c-27 -27 13 -67 61 -61 33 4 42 36 16 55 -19 14 -66 18
-77 6z"/>
<path d="M1634 245 c-12 -48 48 -102 81 -75 22 18 18 48 -10 75 -32 33 -63 33
-71 0z"/>
<path d="M1217 109 c-20 -12 -24 -78 -5 -97 33 -33 75 5 63 59 -8 35 -33 51
-58 38z"/>
</g>
</svg>
